<?xml version="1.0" standalone="no"?>
<!DOCTYPE svg PUBLIC "-//W3C//DTD SVG 20010904//EN"
 "http://www.w3.org/TR/2001/REC-SVG-20010904/DTD/svg10.dtd">
<svg version="1.0" xmlns="http://www.w3.org/2000/svg"
 width="32.000000pt" height="32.000000pt" viewBox="0 0 32.000000 32.000000"
 preserveAspectRatio="xMidYMid meet">

<g transform="translate(0.000000,32.000000) scale(0.100000,-0.100000)"
fill="#000000" stroke="none">
<path d="M5 310 c-9 -14 15 -42 31 -36 7 3 37 -21 67 -53 l56 -58 52 53 c29
30 50 56 47 59 -3 3 -26 -17 -50 -44 l-45 -49 -69 69 c-72 71 -79 76 -89 59z
m26 -13 c-1 -12 -15 -9 -19 4 -3 6 1 10 8 8 6 -3 11 -8 11 -12z"/>
<path d="M280 305 c-10 -12 -10 -19 -2 -27 15 -15 48 14 38 31 -10 15 -21 14
-36 -4z m30 -3 c0 -13 -12 -22 -22 -16 -10 6 -1 24 13 24 5 0 9 -4 9 -8z"/>
<path d="M38 155 c6 -143 11 -150 122 -150 111 0 116 7 122 150 3 61 2 97 -2
80 -4 -16 -8 -60 -9 -97 -1 -43 -5 -68 -12 -68 -8 0 -8 -5 1 -15 10 -13 7 -17
-23 -30 -20 -8 -55 -15 -77 -15 -22 0 -57 7 -77 15 -30 13 -33 17 -23 30 9 10
9 15 1 15 -7 0 -11 25 -12 68 -1 37 -5 81 -9 97 -4 17 -5 -19 -2 -80z"/>
<path d="M80 113 c0 -34 33 -79 50 -68 5 3 21 -2 35 -11 25 -16 27 -16 50 6
19 18 25 34 25 64 l0 41 -80 1 -80 1 0 -34z m50 -4 c0 -11 -5 -19 -12 -19 -6
0 -3 -7 8 -15 15 -11 16 -14 4 -15 -24 0 -40 21 -40 51 0 22 4 26 20 22 11 -3
20 -14 20 -24z m100 -4 c0 -23 -8 -43 -22 -57 l-21 -21 -24 27 c-12 15 -23 38
-23 51 0 21 5 24 43 28 23 2 43 4 45 5 1 1 2 -14 2 -33z"/>
<path d="M198 103 c7 -3 16 -2 19 1 4 3 -2 6 -13 5 -11 0 -14 -3 -6 -6z"/>
<path d="M166 59 c7 -12 31 -12 38 0 3 5 -5 9 -19 9 -14 0 -22 -4 -19 -9z"/>
</g>
</svg>
